<svg xmlns="http://www.w3.org/2000/svg" viewBox="0 0 184.91 77.39"><defs><style>.cls-1{fill:#fff;}</style></defs><g id="Layer_2" data-name="Layer 2"><g id="Layer_1-2" data-name="Layer 1"><polygon class="cls-1" points="46.52 0.46 32.31 31.03 19.03 0.46 0 0.46 22.47 52.19 10.8 77.28 30.02 77.28 65.74 0.46 46.52 0.46"/><path class="cls-1" d="M99.88,2.13V4A27.41,27.41,0,0,0,86.12.24c-17.67,0-32,17.26-32,38.56s14.33,38.59,32,38.59a27.52,27.52,0,0,0,13.76-3.74v3.4h18.57V2.13ZM90,47.87,74.29,56.94V20.67L105.71,38.8Z"/><path class="cls-1" d="M166.34,1.89V3.74A27.51,27.51,0,0,0,152.59,0c-17.68,0-32,17.27-32,38.58s14.32,38.57,32,38.57a27.41,27.41,0,0,0,13.75-3.74v3.41h18.57V1.89Zm-13.2,55.05H141.27V20.41h11.87Zm16.63,0H157.89V20.41h11.88Z"/></g></g></svg>