<svg xmlns="http://www.w3.org/2000/svg" viewBox="0 0 148.87 120.62"><defs><style>.cls-1,.cls-2{fill:#fff;}.cls-2{font-size:18.24px;font-family:Poppins-ExtraBold, Poppins;font-weight:800;}</style></defs><g id="Layer_2" data-name="Layer 2"><g id="Layer_1-2" data-name="Layer 1"><polygon class="cls-1" points="36.85 0.35 25.77 24.2 15.41 0.35 0.58 0.35 18.1 40.69 9 60.26 23.99 60.26 51.84 0.35 36.85 0.35"/><path class="cls-1" d="M78.46,1.66V3.1A21.3,21.3,0,0,0,67.73.18c-13.78,0-25,13.47-25,30.08S54,60.34,67.73,60.34a21.5,21.5,0,0,0,10.73-2.91v2.65H92.94V1.66ZM70.75,37.33,58.5,44.4V16.12L83,30.26Z"/><path class="cls-1" d="M130.28,1.48V2.91A21.46,21.46,0,0,0,119.56,0c-13.79,0-25,13.47-25,30.08s11.16,30.08,25,30.08a21.36,21.36,0,0,0,10.72-2.91V59.9h14.48V1.48ZM120,44.4h-9.26V15.92H120Zm13,0H123.7V15.92H133Z"/><text class="cls-2" transform="translate(0 87.5)">Young Athletes <tspan x="37.96" y="21.89">Agency</tspan></text></g></g></svg>