<svg xmlns="http://www.w3.org/2000/svg" viewBox="0 0 306.06 86.7"><defs><style>.cls-1,.cls-2{fill:#fff;}.cls-2{font-size:22.4px;font-family:Poppins-ExtraBold, Poppins;font-weight:800;}</style></defs><g id="Layer_2" data-name="Layer 2"><g id="Layer_1-2" data-name="Layer 1"><polygon class="cls-1" points="45.38 3.65 31.52 33.48 18.56 3.65 0 3.65 21.92 54.12 10.54 78.59 29.29 78.59 64.13 3.65 45.38 3.65"/><path class="cls-1" d="M97.44,5.28v1.8A26.71,26.71,0,0,0,84,3.43c-17.25,0-31.22,16.85-31.22,37.63S66.78,78.7,84,78.7a26.81,26.81,0,0,0,13.41-3.64v3.31h18.12V5.28ZM87.8,49.91,72.48,58.75V23.37l30.65,17.69Z"/><path class="cls-1" d="M162.29,5.05v1.8A26.88,26.88,0,0,0,148.87,3.2c-17.25,0-31.22,16.85-31.22,37.64s14,37.63,31.22,37.63a26.77,26.77,0,0,0,13.42-3.64v3.32H180.4V5.05Zm-12.88,53.7H137.82V23.12h11.59Zm16.22,0H154V23.12h11.59Z"/><text class="cls-2" transform="translate(207.71 19.14)">Young<tspan x="0" y="26.88">Athletes</tspan><tspan x="0" y="53.76">Agency</tspan></text><rect class="cls-1" x="194.01" y="4.25" width="1.91" height="73.4"/></g></g></svg>