<svg xmlns="http://www.w3.org/2000/svg" xmlns:xlink="http://www.w3.org/1999/xlink" viewBox="0 0 306.06 86.69"><defs><style>.cls-1{fill:url(#linear-gradient);}.cls-2{fill:url(#linear-gradient-2);}.cls-3{fill:#fff;}.cls-4{fill:url(#linear-gradient-3);}.cls-5{font-size:22.4px;font-family:Poppins-ExtraBold, Poppins;font-weight:800;}.cls-5,.cls-6{fill:#293985;}</style><linearGradient id="linear-gradient" x1="32.07" y1="78.59" x2="32.07" y2="3.65" gradientUnits="userSpaceOnUse"><stop offset="0" stop-color="#5d2d88"/><stop offset="1" stop-color="#283a85"/></linearGradient><linearGradient id="linear-gradient-2" x1="84.18" y1="78.7" x2="84.18" y2="3.43" xlink:href="#linear-gradient"/><linearGradient id="linear-gradient-3" x1="149.02" y1="78.47" x2="149.02" y2="3.2" xlink:href="#linear-gradient"/></defs><g id="Layer_2" data-name="Layer 2"><g id="Layer_1-2" data-name="Layer 1"><polygon class="cls-1" points="45.38 3.65 31.52 33.48 18.56 3.65 0 3.65 21.92 54.12 10.54 78.59 29.29 78.59 64.13 3.65 45.38 3.65"/><path class="cls-2" d="M97.44,5.28v1.8A26.75,26.75,0,0,0,84,3.43C66.78,3.43,52.8,20.28,52.8,41.06S66.78,78.7,84,78.7a26.84,26.84,0,0,0,13.42-3.64v3.32h18.12V5.28Z"/><polygon class="cls-3" points="87.8 49.91 72.47 58.75 72.47 23.37 103.13 41.06 87.8 49.91"/><path class="cls-4" d="M162.28,5.05v1.8A26.83,26.83,0,0,0,148.86,3.2c-17.24,0-31.22,16.85-31.22,37.64s14,37.63,31.22,37.63a26.71,26.71,0,0,0,13.42-3.64v3.32H180.4V5.05Z"/><rect class="cls-3" x="137.82" y="23.12" width="11.58" height="35.64"/><rect class="cls-3" x="154.04" y="23.12" width="11.59" height="35.64"/><text class="cls-5" transform="translate(207.71 19.14)">Young<tspan x="0" y="26.88">Athletes</tspan><tspan x="0" y="53.76">Agency</tspan></text><rect class="cls-6" x="194.01" y="4.25" width="1.91" height="73.4"/></g></g></svg>